<svg width="74" height="68" viewBox="0 0 74 68" fill="none" xmlns="http://www.w3.org/2000/svg">
<ellipse cx="36.8936" cy="34" rx="36.8936" ry="34" fill="#365486"/>
<path d="M43.3125 21.625C43.3125 18.5184 40.7102 16 37.5 16C34.2898 16 31.6875 18.5184 31.6875 21.625C31.6875 24.7316 34.2898 27.25 37.5 27.25C40.7102 27.25 43.3125 24.7316 43.3125 21.625ZM36.1431 30.127C32.5509 27.9988 26.7323 27.4141 23.8043 27.2529C22.8204 27.199 22 27.9244 22 28.8402V41.8949C22 42.7346 22.7017 43.4348 23.6039 43.4799C26.2474 43.6141 31.5955 44.1057 35.2919 45.9074C35.8592 46.184 36.5319 45.8072 36.5319 45.2119V30.7984C36.5312 30.5248 36.3914 30.274 36.1431 30.127ZM51.1957 27.2529C48.2683 27.4135 42.4491 27.9988 38.8575 30.127C38.6092 30.274 38.4694 30.5348 38.4694 30.8084V45.2102C38.4694 45.8072 39.1438 46.1846 39.713 45.9074C43.4088 44.1074 48.7538 43.6158 51.3967 43.4816C52.2989 43.4359 53.0006 42.7357 53.0006 41.8961V28.8402C53 27.9244 52.1796 27.199 51.1957 27.2529Z" fill="white"/>
</svg>
